<svg width="40" height="40" viewBox="0 0 40 40" fill="none" xmlns="http://www.w3.org/2000/svg">
<path d="M16 32L20 24L24 32H16Z" fill="#004600"/>
<path d="M20 24L24 16L28 24H20Z" fill="#004600"/>
<path d="M12 24L16 16L20 24H12Z" fill="#006400"/>
<path d="M8 16L12 8L16 16H8Z" fill="#006400"/>
<path d="M4 24L8 16L12 24H4Z" fill="#004600"/>
<path d="M0 32L4 24L8 32H0Z" fill="#004600"/>
<path d="M24 16L28 8L32 16H24Z" fill="#006400"/>
<path d="M28 24L32 16L36 24H28Z" fill="#006400"/>
<path d="M32 32L36 24L40 32H32Z" fill="#006400"/>
<path d="M28 24L24 32L20 24H28Z" fill="#004600"/>
<path d="M12 24L8 32L4 24H12Z" fill="#004600"/>
<path d="M16 16L12 24L8 16H16Z" fill="#006400"/>
<path d="M20 24L16 32L12 24H20Z" fill="#006400"/>
<path d="M32 16L28 24L24 16H32Z" fill="#006400"/>
<path d="M36 24L32 32L28 24H36Z" fill="#006400"/>
</svg>
